<svg width="100" height="100" fill="none" xmlns="http://www.w3.org/2000/svg"><g clip-path="url(#a)"><path d="M87.5 0h-75C5.596 0 0 5.596 0 12.5v75C0 94.404 5.596 100 12.5 100h75c6.904 0 12.5-5.596 12.5-12.5v-75C100 5.596 94.404 0 87.5 0z" fill="#DEC915"/><path d="M18.75 23.75a5 5 0 1 0 0-10 5 5 0 0 0 0 10zM37.5 23.75a5 5 0 1 0 0-10 5 5 0 0 0 0 10zM56.25 23.75a5 5 0 1 0 0-10 5 5 0 0 0 0 10z" fill="#fff"/><path d="m25 50 11.086 11.086a2 2 0 0 1 0 2.828L25 75" stroke="#fff" stroke-width="6.25"/><path d="M50 75h21a2 2 0 0 0 2-2v-2a2 2 0 0 0-2-2H50a2 2 0 0 0-2 2v2a2 2 0 0 0 2 2z" fill="#fff" stroke="#fff" stroke-width="1.25"/></g><defs><clipPath id="a"><path fill="#fff" d="M0 0h100v100H0z"/></clipPath></defs></svg>